HIERARCHY
ROOT Hips
{
	OFFSET 0.000000 0.000000 0.000000
	CHANNELS 6 Xposition Yposition Zposition Xrotation Yrotation Zrotation
	JOINT LeftUpLeg_virtual
	{
		OFFSET 0.000000 0.000000 0.000000
		CHANNELS 3 Xrotation Yrotation Zrotation
		JOINT LeftUpLeg
		{
			OFFSET 10.205400 -3.823500 0.155100
			CHANNELS 3 Xrotation Yrotation Zrotation
			JOINT LeftLeg
			{
				OFFSET 0.708757 -12.982077 0.567790
				CHANNELS 3 Xrotation Yrotation Zrotation
				JOINT LeftFoot
				{
					OFFSET -0.708756 -10.717838 -2.184338
					CHANNELS 3 Xrotation Yrotation Zrotation
					JOINT LeftToeBase
					{
						OFFSET 0.108149 -7.191104 7.560241
						CHANNELS 3 Xrotation Yrotation Zrotation
						JOINT LeftToe_End
						{
							OFFSET 0.070230 0.081724 4.490308
							CHANNELS 3 Xrotation Yrotation Zrotation
							End Site
							{
								OFFSET 0 0 0
							}
						}
					}
				}
			}
		}
	}
	JOINT RightUpLeg_virtual
	{
		OFFSET 0.000000 0.000000 0.000000
		CHANNELS 3 Xrotation Yrotation Zrotation
		JOINT RightUpLeg
		{
			OFFSET -10.205400 -3.823500 0.005500
			CHANNELS 3 Xrotation Yrotation Zrotation
			JOINT RightLeg
			{
				OFFSET -0.708756 -12.982134 0.610632
				CHANNELS 3 Xrotation Yrotation Zrotation
				JOINT RightFoot
				{
					OFFSET 0.708754 -10.717769 -1.945823
					CHANNELS 3 Xrotation Yrotation Zrotation
					JOINT RightToeBase
					{
						OFFSET -0.108140 -7.191069 7.372968
						CHANNELS 3 Xrotation Yrotation Zrotation
						JOINT RightToe_End
						{
							OFFSET -0.070227 0.081735 4.479403
							CHANNELS 3 Xrotation Yrotation Zrotation
							End Site
							{
								OFFSET 0 0 0
							}
						}
					}
				}
			}
		}
	}
	JOINT Spine_virtual
	{
		OFFSET 0.000000 0.000000 0.000000
		CHANNELS 3 Xrotation Yrotation Zrotation
		JOINT Spine
		{
			OFFSET 0.000000 6.876099 0.125700
			CHANNELS 3 Xrotation Yrotation Zrotation
			JOINT Spine1
			{
				OFFSET 0.000000 5.730043 0.104720
				CHANNELS 3 Xrotation Yrotation Zrotation
				JOINT Spine1_split
				{
					OFFSET 0.000000 5.730043 0.104720
					CHANNELS 3 Xrotation Yrotation Zrotation
					JOINT Spine2
					{
						OFFSET 0.000000 5.730043 0.104720
						CHANNELS 3 Xrotation Yrotation Zrotation
						JOINT Neck_virtual
						{
							OFFSET 0.000000 0.000000 0.000000
							CHANNELS 3 Xrotation Yrotation Zrotation
							JOINT Neck
							{
								OFFSET 0.000000 10.314075 0.188496
								CHANNELS 3 Xrotation Yrotation Zrotation
								JOINT Head
								{
									OFFSET 0.000000 7.643700 -2.377400
									CHANNELS 3 Xrotation Yrotation Zrotation
									JOINT HeadTop_End
									{
										OFFSET 0.000000 43.788605 -13.619600
										CHANNELS 3 Xrotation Yrotation Zrotation
										End Site
										{
											OFFSET 0 0 0
										}
									}
								}
							}
						}
						JOINT LeftShoulder_virtual
						{
							OFFSET 0.000000 0.000000 0.000000
							CHANNELS 3 Xrotation Yrotation Zrotation
							JOINT LeftShoulder
							{
								OFFSET 2.196100 4.412489 0.087492
								CHANNELS 3 Xrotation Yrotation Zrotation
								JOINT LeftShoulder_split
								{
									OFFSET 2.196100 4.412489 0.087492
									CHANNELS 3 Xrotation Yrotation Zrotation
									JOINT LeftArm
									{
										OFFSET 8.771219 -2.981674 -0.026999
										CHANNELS 3 Xrotation Yrotation Zrotation
										JOINT LeftForeArm
										{
											OFFSET 8.512804 0.000000 -0.000000
											CHANNELS 3 Xrotation Yrotation Zrotation
											JOINT LeftHand
											{
												OFFSET 18.484802 0.000000 -0.000000
												CHANNELS 3 Xrotation Yrotation Zrotation
												End Site
												{
													OFFSET 0 0 0
												}
											}
										}
									}
								}
							}
						}
						JOINT RightShoulder_virtual
						{
							OFFSET 0.000000 0.000000 0.000000
							CHANNELS 3 Xrotation Yrotation Zrotation
							JOINT RightShoulder
							{
								OFFSET -2.196100 4.412496 0.070690
								CHANNELS 3 Xrotation Yrotation Zrotation
								JOINT RightShoulder_split
								{
									OFFSET -2.196100 4.412496 0.070690
									CHANNELS 3 Xrotation Yrotation Zrotation
									JOINT RightArm
									{
										OFFSET -8.771282 -2.981682 -0.094208
										CHANNELS 3 Xrotation Yrotation Zrotation
										JOINT RightForeArm
										{
											OFFSET -8.494598 0.000000 0.000000
											CHANNELS 3 Xrotation Yrotation Zrotation
											JOINT RightHand
											{
												OFFSET -18.483803 0.000000 0.000001
												CHANNELS 3 Xrotation Yrotation Zrotation
												End Site
												{
													OFFSET 0 0 0
												}
											}
										}
									}
								}
							}
						}
					}
				}
			}
		}
	}
}
MOTION
Frames: 5
Frame Time: 0.03333333
-1.621988 29.190548 -2.401340 0.000000 0.000000 0.000000 9.524181 -52.154566 11.690191 -34.522115 16.677519 29.485971 39.575380 -14.341082 -6.427712 -10.840086 -0.312116 -12.292965 0.389794 -1.627835 -2.426857 0.000000 0.000000 0.000000 8.525017 -49.964856 11.083140 -27.571619 -3.376029 -29.410340 46.119643 17.754389 -3.561821 -27.102317 -10.274730 35.959023 8.978265 12.816229 -15.748751 0.000000 0.000000 0.000000 5.772122 -45.262222 9.171085 5.270634 2.805789 -3.271318 10.938863 -4.429059 -5.400503 0.106706 -0.508067 0.061220 0.000000 0.000000 0.000000 15.055135 -1.929615 -5.335192 -14.506700 18.463004 5.391649 -22.494979 25.001959 3.329933 0.000000 0.000000 0.000000 14.079539 -4.059122 -6.279534 1.300709 -9.613741 -1.962028 -1.994090 -2.548221 -1.964008 -27.829126 3.023269 -30.882127 21.945536 -38.756389 12.702110 0.000000 0.000000 0.000000 15.821223 -2.912386 -5.112469 -8.762349 8.535228 6.454393 11.104774 6.212130 -1.761983 -47.824472 -29.092764 28.750985 -160.123663 74.578043 159.722334 0.000000 0.000000 0.000000 
-1.604545 29.189749 -2.294170 0.000000 0.000000 0.000000 9.469434 -52.194772 11.697535 -34.457416 16.725882 29.393798 39.658978 -14.370595 -6.452869 -10.884146 -0.397317 -12.240706 0.343724 -1.654458 -2.272050 0.000000 0.000000 0.000000 8.534823 -50.107091 11.131470 -27.494694 -3.354245 -29.507800 46.065746 17.791255 -3.510641 -27.114372 -10.456933 35.994492 8.969572 12.855020 -15.764433 0.000000 0.000000 0.000000 5.802315 -45.230623 9.106650 5.250217 2.835867 -3.249774 10.907457 -4.475481 -5.430772 0.101621 -0.565216 0.065225 0.000000 0.000000 0.000000 15.106876 -1.960528 -5.350873 -14.477880 18.380659 5.511429 -22.442811 24.942307 3.284678 0.000000 0.000000 0.000000 14.101012 -4.135145 -6.265459 1.321024 -9.786695 -1.825440 -2.114590 -2.577657 -2.196882 -28.001757 2.988050 -30.754832 21.553352 -38.692936 12.563031 0.000000 0.000000 0.000000 15.757637 -2.988421 -5.095740 -8.695370 8.530743 6.528594 11.412932 6.195052 -1.488632 -47.983971 -29.219071 28.712380 -160.007003 74.432997 159.471789 0.000000 0.000000 0.000000 
-1.552530 29.202312 -2.141235 0.000000 0.000000 0.000000 9.423918 -52.205096 11.700012 -34.242996 16.736574 29.139315 39.870256 -14.398085 -6.469937 -11.231279 -0.559807 -11.932111 0.196257 -1.671927 -2.165281 0.000000 0.000000 0.000000 8.545543 -50.151566 11.151115 -27.319732 -3.499144 -29.765524 45.663264 17.883351 -3.436682 -26.867691 -10.651635 36.256929 8.993232 12.895933 -15.829418 0.000000 0.000000 0.000000 5.804845 -45.202571 9.025569 5.232526 2.913502 -3.244005 10.845120 -4.551087 -5.453463 0.098182 -0.608250 0.076062 0.000000 0.000000 0.000000 15.099407 -2.008446 -5.374320 -14.253703 18.323876 5.475857 -22.272651 24.617829 3.197900 0.000000 0.000000 0.000000 14.089190 -4.242003 -6.230791 1.316189 -9.981368 -1.780232 -2.286709 -2.529827 -2.531976 -28.373046 2.707452 -30.448502 21.108930 -38.139633 12.468314 0.000000 0.000000 0.000000 15.639497 -3.086128 -5.074428 -8.587306 8.666106 6.804395 11.602654 5.961649 -1.268666 -48.293614 -29.749408 28.589662 -159.909728 74.825597 158.943092 0.000000 0.000000 0.000000 
-1.470421 29.221809 -1.961222 0.000000 0.000000 0.000000 9.386746 -52.179469 11.686724 -33.912845 16.726974 28.744687 40.204676 -14.394774 -6.492849 -11.885858 -0.772829 -11.404168 0.076982 -1.674763 -2.142236 0.000000 0.000000 0.000000 8.549776 -50.131181 11.137329 -27.093188 -3.781069 -30.160179 44.929179 18.023141 -3.343277 -26.421501 -10.845714 36.683385 9.078170 12.940376 -15.954193 0.000000 0.000000 0.000000 5.794631 -45.173225 8.934341 5.224948 3.042463 -3.253392 10.748908 -4.650532 -5.463902 0.096990 -0.628470 0.083733 0.000000 0.000000 0.000000 15.021341 -2.075686 -5.404509 -13.830290 18.266079 5.297106 -21.900267 23.978247 3.115651 0.000000 0.000000 0.000000 14.040706 -4.380846 -6.181934 1.285330 -10.199506 -1.887241 -2.472125 -2.348863 -2.941994 -28.827001 2.254776 -30.002859 20.689032 -37.287697 12.477804 0.000000 0.000000 0.000000 15.465862 -3.204820 -5.045482 -8.444848 8.936799 7.231485 11.749305 5.632767 -1.239699 -48.698187 -30.580041 28.403775 -159.850742 75.796412 158.162756 0.000000 0.000000 0.000000 
-1.366415 29.245052 -1.742344 0.000000 0.000000 0.000000 9.339940 -52.136350 11.643349 -33.505763 16.720918 28.231634 40.639615 -14.353159 -6.527213 -12.742188 -1.012079 -10.752242 0.063596 -1.660165 -2.205205 0.000000 0.000000 0.000000 8.531893 -50.071236 11.087272 -26.866769 -4.160363 -30.656642 43.909551 18.227789 -3.240650 -25.817032 -11.016548 37.260318 9.184960 12.997105 -16.134833 0.000000 0.000000 0.000000 5.778455 -45.129987 8.832959 5.237121 3.228932 -3.283986 10.613043 -4.765584 -5.457133 0.099110 -0.612037 0.082095 0.000000 0.000000 0.000000 14.861443 -2.160649 -5.440057 -13.213529 18.200677 5.007452 -21.254649 22.944193 3.084282 0.000000 0.000000 0.000000 13.935875 -4.549724 -6.129665 1.214363 -10.476667 -2.183099 -2.665338 -2.029580 -3.312979 -29.283353 1.681361 -29.446820 20.355000 -36.428397 12.651118 0.000000 0.000000 0.000000 15.225084 -3.340556 -5.010283 -8.275540 9.305217 7.743137 11.933003 5.402780 -1.357663 -49.105648 -31.526541 28.237447 -159.955408 77.313274 157.280569 0.000000 0.000000 0.000000 
